<?xml version="1.0" encoding="UTF-8" standalone="no"?>
<!DOCTYPE svg PUBLIC "-//W3C//DTD SVG 1.1//EN"
 "http://www.w3.org/Graphics/SVG/1.1/DTD/svg11.dtd">
<!-- Generated by graphviz version 2.43.0 (0)
 -->
<!-- Title: %3 Pages: 1 -->
<svg width="398pt" height="44pt"
 viewBox="0.00 0.00 398.00 44.00" xmlns="http://www.w3.org/2000/svg" xmlns:xlink="http://www.w3.org/1999/xlink">
<g id="graph0" class="graph" transform="scale(1 1) rotate(0) translate(4 40)">
<title>%3</title>
<polygon fill="white" stroke="transparent" points="-4,4 -4,-40 394,-40 394,4 -4,4"/>
<!-- 25ed430750f863d6 -->
<g id="node1" class="node">
<title>25ed430750f863d6</title>
<polygon fill="#99cc00" stroke="black" points="77,-36 0,-36 0,0 77,0 77,-36"/>
<text text-anchor="middle" x="38.5" y="-14.9" font-family="Helvetica,sans-Serif" font-size="12.00">input.mp4</text>
</g>
<!-- 6fce989decc232cd -->
<g id="node2" class="node">
<title>6fce989decc232cd</title>
<polygon fill="#ffcc00" stroke="black" points="216,-36 162,-36 162,0 216,0 216,-36"/>
<text text-anchor="middle" x="189" y="-14.9" font-family="Helvetica,sans-Serif" font-size="12.00">hflip</text>
</g>
<!-- 25ed430750f863d6&#45;&gt;6fce989decc232cd -->
<g id="edge1" class="edge">
<title>25ed430750f863d6&#45;&gt;6fce989decc232cd</title>
<path fill="none" stroke="black" d="M77.36,-18C100.21,-18 129.16,-18 151.72,-18"/>
<polygon fill="black" stroke="black" points="151.91,-21.5 161.91,-18 151.91,-14.5 151.91,-21.5"/>
<text text-anchor="middle" x="119.5" y="-21.8" font-family="Times,serif" font-size="14.00">* =&gt; 0</text>
</g>
<!-- 32ff1b4d03cc4d4 -->
<g id="node3" class="node">
<title>32ff1b4d03cc4d4</title>
<polygon fill="#99ccff" stroke="black" points="390,-36 304,-36 304,0 390,0 390,-36"/>
<text text-anchor="middle" x="347" y="-14.9" font-family="Helvetica,sans-Serif" font-size="12.00">output.mp4</text>
</g>
<!-- 6fce989decc232cd&#45;&gt;32ff1b4d03cc4d4 -->
<g id="edge2" class="edge">
<title>6fce989decc232cd&#45;&gt;32ff1b4d03cc4d4</title>
<path fill="none" stroke="black" d="M216.11,-18C237.24,-18 267.68,-18 293.78,-18"/>
<polygon fill="black" stroke="black" points="293.91,-21.5 303.91,-18 293.91,-14.5 293.91,-21.5"/>
<text text-anchor="middle" x="260" y="-21.8" font-family="Times,serif" font-size="14.00">0 =&gt; 0</text>
</g>
</g>
</svg>
