<?xml version="1.0" encoding="UTF-8" standalone="no"?>
<!DOCTYPE svg PUBLIC "-//W3C//DTD SVG 1.1//EN"
 "http://www.w3.org/Graphics/SVG/1.1/DTD/svg11.dtd">
<!-- Generated by graphviz version 2.43.0 (0)
 -->
<!-- Title: %3 Pages: 1 -->
<svg width="861pt" height="152pt"
 viewBox="0.00 0.00 861.00 152.00" xmlns="http://www.w3.org/2000/svg" xmlns:xlink="http://www.w3.org/1999/xlink">
<g id="graph0" class="graph" transform="scale(1 1) rotate(0) translate(4 148)">
<title>%3</title>
<polygon fill="white" stroke="transparent" points="-4,4 -4,-148 857,-148 857,4 -4,4"/>
<!-- 25ed430750f863d6 -->
<g id="node1" class="node">
<title>25ed430750f863d6</title>
<polygon fill="#99cc00" stroke="black" points="77,-117 0,-117 0,-81 77,-81 77,-117"/>
<text text-anchor="middle" x="38.5" y="-95.9" font-family="Helvetica,sans-Serif" font-size="12.00">input.mp4</text>
</g>
<!-- 635946df01b03434 -->
<g id="node3" class="node">
<title>635946df01b03434</title>
<polygon fill="#ffcc00" stroke="black" points="232,-144 178,-144 178,-108 232,-108 232,-144"/>
<text text-anchor="middle" x="205" y="-122.9" font-family="Helvetica,sans-Serif" font-size="12.00">trim</text>
</g>
<!-- 25ed430750f863d6&#45;&gt;635946df01b03434 -->
<g id="edge1" class="edge">
<title>25ed430750f863d6&#45;&gt;635946df01b03434</title>
<path fill="none" stroke="black" d="M77.24,-105.19C104.46,-109.66 140.97,-115.66 167.82,-120.06"/>
<polygon fill="black" stroke="black" points="167.53,-123.56 177.96,-121.73 168.66,-116.65 167.53,-123.56"/>
<text text-anchor="middle" x="119.5" y="-118.8" font-family="Times,serif" font-size="14.00">* =&gt; 0</text>
</g>
<!-- d695cb69537e6d9 -->
<g id="node4" class="node">
<title>d695cb69537e6d9</title>
<polygon fill="#ffcc00" stroke="black" points="232,-90 178,-90 178,-54 232,-54 232,-90"/>
<text text-anchor="middle" x="205" y="-68.9" font-family="Helvetica,sans-Serif" font-size="12.00">trim</text>
</g>
<!-- 25ed430750f863d6&#45;&gt;d695cb69537e6d9 -->
<g id="edge2" class="edge">
<title>25ed430750f863d6&#45;&gt;d695cb69537e6d9</title>
<path fill="none" stroke="black" d="M77.1,-92.1C83.08,-91.04 89.21,-89.97 95,-89 119.35,-84.91 146.81,-80.63 168.08,-77.38"/>
<polygon fill="black" stroke="black" points="168.62,-80.84 177.98,-75.88 167.57,-73.92 168.62,-80.84"/>
<text text-anchor="middle" x="119.5" y="-92.8" font-family="Times,serif" font-size="14.00">* =&gt; 0</text>
</g>
<!-- 5d67304cc19b04fd -->
<g id="node2" class="node">
<title>5d67304cc19b04fd</title>
<polygon fill="#99cc00" stroke="black" points="248,-36 162,-36 162,0 248,0 248,-36"/>
<text text-anchor="middle" x="205" y="-14.9" font-family="Helvetica,sans-Serif" font-size="12.00">overlay.png</text>
</g>
<!-- 48cecfc816831f2a -->
<g id="node5" class="node">
<title>48cecfc816831f2a</title>
<polygon fill="#ffcc00" stroke="black" points="391.5,-36 337.5,-36 337.5,0 391.5,0 391.5,-36"/>
<text text-anchor="middle" x="364.5" y="-14.9" font-family="Helvetica,sans-Serif" font-size="12.00">hflip</text>
</g>
<!-- 5d67304cc19b04fd&#45;&gt;48cecfc816831f2a -->
<g id="edge3" class="edge">
<title>5d67304cc19b04fd&#45;&gt;48cecfc816831f2a</title>
<path fill="none" stroke="black" d="M248.21,-18C272.86,-18 303.65,-18 327.21,-18"/>
<polygon fill="black" stroke="black" points="327.48,-21.5 337.48,-18 327.48,-14.5 327.48,-21.5"/>
<text text-anchor="middle" x="292" y="-21.8" font-family="Times,serif" font-size="14.00">* =&gt; 0</text>
</g>
<!-- 65db7656991f446 -->
<g id="node6" class="node">
<title>65db7656991f446</title>
<polygon fill="#ffcc00" stroke="black" points="393,-90 336,-90 336,-54 393,-54 393,-90"/>
<text text-anchor="middle" x="364.5" y="-68.9" font-family="Helvetica,sans-Serif" font-size="12.00">concat</text>
</g>
<!-- 635946df01b03434&#45;&gt;65db7656991f446 -->
<g id="edge4" class="edge">
<title>635946df01b03434&#45;&gt;65db7656991f446</title>
<path fill="none" stroke="black" d="M232.03,-118.61C254.88,-111.95 288.9,-101.6 318,-91 320.71,-90.01 323.5,-88.95 326.3,-87.86"/>
<polygon fill="black" stroke="black" points="327.77,-91.04 335.75,-84.07 325.16,-84.55 327.77,-91.04"/>
<text text-anchor="middle" x="292" y="-111.8" font-family="Times,serif" font-size="14.00">0 =&gt; 0</text>
</g>
<!-- d695cb69537e6d9&#45;&gt;65db7656991f446 -->
<g id="edge5" class="edge">
<title>d695cb69537e6d9&#45;&gt;65db7656991f446</title>
<path fill="none" stroke="black" d="M232.01,-72C257.53,-72 296.73,-72 325.7,-72"/>
<polygon fill="black" stroke="black" points="325.86,-75.5 335.86,-72 325.86,-68.5 325.86,-75.5"/>
<text text-anchor="middle" x="292" y="-75.8" font-family="Times,serif" font-size="14.00">0 =&gt; 1</text>
</g>
<!-- 1bf8065c3f485708 -->
<g id="node7" class="node">
<title>1bf8065c3f485708</title>
<polygon fill="#ffcc00" stroke="black" points="542,-63 481,-63 481,-27 542,-27 542,-63"/>
<text text-anchor="middle" x="511.5" y="-41.9" font-family="Helvetica,sans-Serif" font-size="12.00">overlay</text>
</g>
<!-- 48cecfc816831f2a&#45;&gt;1bf8065c3f485708 -->
<g id="edge7" class="edge">
<title>48cecfc816831f2a&#45;&gt;1bf8065c3f485708</title>
<path fill="none" stroke="black" d="M391.62,-22.3C411.28,-25.6 438.87,-30.36 463,-35 465.62,-35.5 468.33,-36.04 471.05,-36.59"/>
<polygon fill="black" stroke="black" points="470.39,-40.02 480.89,-38.6 471.79,-33.16 470.39,-40.02"/>
<text text-anchor="middle" x="437" y="-38.8" font-family="Times,serif" font-size="14.00">0 =&gt; 1</text>
</g>
<!-- 65db7656991f446&#45;&gt;1bf8065c3f485708 -->
<g id="edge6" class="edge">
<title>65db7656991f446&#45;&gt;1bf8065c3f485708</title>
<path fill="none" stroke="black" d="M393.11,-66.86C415.12,-62.76 446.21,-56.97 470.87,-52.38"/>
<polygon fill="black" stroke="black" points="471.8,-55.77 480.99,-50.49 470.52,-48.88 471.8,-55.77"/>
<text text-anchor="middle" x="437" y="-66.8" font-family="Times,serif" font-size="14.00">0 =&gt; 0</text>
</g>
<!-- 729d505df6329c97 -->
<g id="node8" class="node">
<title>729d505df6329c97</title>
<polygon fill="#ffcc00" stroke="black" points="698,-63 630,-63 630,-27 698,-27 698,-63"/>
<text text-anchor="middle" x="664" y="-41.9" font-family="Helvetica,sans-Serif" font-size="12.00">drawbox</text>
</g>
<!-- 1bf8065c3f485708&#45;&gt;729d505df6329c97 -->
<g id="edge8" class="edge">
<title>1bf8065c3f485708&#45;&gt;729d505df6329c97</title>
<path fill="none" stroke="black" d="M542.23,-45C564.35,-45 594.86,-45 619.68,-45"/>
<polygon fill="black" stroke="black" points="619.93,-48.5 629.93,-45 619.93,-41.5 619.93,-48.5"/>
<text text-anchor="middle" x="586" y="-48.8" font-family="Times,serif" font-size="14.00">0 =&gt; 0</text>
</g>
<!-- 2ca1c9826f62c5d7 -->
<g id="node9" class="node">
<title>2ca1c9826f62c5d7</title>
<polygon fill="#99ccff" stroke="black" points="853,-63 786,-63 786,-27 853,-27 853,-63"/>
<text text-anchor="middle" x="819.5" y="-41.9" font-family="Helvetica,sans-Serif" font-size="12.00">out.mp4</text>
</g>
<!-- 729d505df6329c97&#45;&gt;2ca1c9826f62c5d7 -->
<g id="edge9" class="edge">
<title>729d505df6329c97&#45;&gt;2ca1c9826f62c5d7</title>
<path fill="none" stroke="black" d="M698.31,-45C720.99,-45 751.22,-45 775.69,-45"/>
<polygon fill="black" stroke="black" points="775.79,-48.5 785.79,-45 775.79,-41.5 775.79,-48.5"/>
<text text-anchor="middle" x="742" y="-48.8" font-family="Times,serif" font-size="14.00">0 =&gt; 0</text>
</g>
</g>
</svg>
