<?xml version="1.0" encoding="UTF-8" standalone="no"?>
<!DOCTYPE svg PUBLIC "-//W3C//DTD SVG 1.1//EN"
 "http://www.w3.org/Graphics/SVG/1.1/DTD/svg11.dtd">
<!-- Generated by graphviz version 2.43.0 (0)
 -->
<!-- Title: %3 Pages: 1 -->
<svg width="411pt" height="98pt"
 viewBox="0.00 0.00 411.00 98.00" xmlns="http://www.w3.org/2000/svg" xmlns:xlink="http://www.w3.org/1999/xlink">
<g id="graph0" class="graph" transform="scale(1 1) rotate(0) translate(4 94)">
<title>%3</title>
<polygon fill="white" stroke="transparent" points="-4,4 -4,-94 407,-94 407,4 -4,4"/>
<!-- 3eeed28a3f74e554 -->
<g id="node1" class="node">
<title>3eeed28a3f74e554</title>
<polygon fill="#99cc00" stroke="black" points="85,-90 0,-90 0,-54 85,-54 85,-90"/>
<text text-anchor="middle" x="42.5" y="-68.9" font-family="Helvetica,sans-Serif" font-size="12.00">input1.mp4</text>
</g>
<!-- 36304e0da688b87 -->
<g id="node3" class="node">
<title>36304e0da688b87</title>
<polygon fill="#99ccff" stroke="black" points="264,-90 170,-90 170,-54 264,-54 264,-90"/>
<text text-anchor="middle" x="217" y="-68.9" font-family="Helvetica,sans-Serif" font-size="12.00">output1.mp4</text>
</g>
<!-- 3eeed28a3f74e554&#45;&gt;36304e0da688b87 -->
<g id="edge1" class="edge">
<title>3eeed28a3f74e554&#45;&gt;36304e0da688b87</title>
<path fill="none" stroke="black" d="M85.26,-72C107.59,-72 135.41,-72 159.64,-72"/>
<polygon fill="black" stroke="black" points="159.77,-75.5 169.77,-72 159.77,-68.5 159.77,-75.5"/>
<text text-anchor="middle" x="127.5" y="-75.8" font-family="Times,serif" font-size="14.00">* =&gt; 0</text>
</g>
<!-- 582b34bd6506058b -->
<g id="node2" class="node">
<title>582b34bd6506058b</title>
<polygon fill="#99cc00" stroke="black" points="85,-36 0,-36 0,0 85,0 85,-36"/>
<text text-anchor="middle" x="42.5" y="-14.9" font-family="Helvetica,sans-Serif" font-size="12.00">input2.mp4</text>
</g>
<!-- 5a8b1f37c9402ea6 -->
<g id="node4" class="node">
<title>5a8b1f37c9402ea6</title>
<polygon fill="#99ccff" stroke="black" points="264,-36 170,-36 170,0 264,0 264,-36"/>
<text text-anchor="middle" x="217" y="-14.9" font-family="Helvetica,sans-Serif" font-size="12.00">output2.mp4</text>
</g>
<!-- 582b34bd6506058b&#45;&gt;5a8b1f37c9402ea6 -->
<g id="edge2" class="edge">
<title>582b34bd6506058b&#45;&gt;5a8b1f37c9402ea6</title>
<path fill="none" stroke="black" d="M85.26,-18C107.59,-18 135.41,-18 159.64,-18"/>
<polygon fill="black" stroke="black" points="159.77,-21.5 169.77,-18 159.77,-14.5 159.77,-21.5"/>
<text text-anchor="middle" x="127.5" y="-21.8" font-family="Times,serif" font-size="14.00">* =&gt; 0</text>
</g>
<!-- 197f502c15dece25 -->
<g id="node5" class="node">
<title>197f502c15dece25</title>
<polygon fill="lightgrey" stroke="black" points="403,-63 349,-63 349,-27 403,-27 403,-63"/>
<text text-anchor="middle" x="376" y="-41.9" font-family="Helvetica,sans-Serif" font-size="12.00">&#45;y</text>
</g>
<!-- 36304e0da688b87&#45;&gt;197f502c15dece25 -->
<g id="edge3" class="edge">
<title>36304e0da688b87&#45;&gt;197f502c15dece25</title>
<path fill="none" stroke="black" d="M264.26,-64.05C287.99,-59.96 316.49,-55.06 338.64,-51.25"/>
<polygon fill="black" stroke="black" points="339.37,-54.68 348.63,-49.53 338.18,-47.78 339.37,-54.68"/>
<text text-anchor="middle" x="306.5" y="-63.8" font-family="Times,serif" font-size="14.00">* =&gt; 0</text>
</g>
<!-- 5a8b1f37c9402ea6&#45;&gt;197f502c15dece25 -->
<g id="edge4" class="edge">
<title>5a8b1f37c9402ea6&#45;&gt;197f502c15dece25</title>
<path fill="none" stroke="black" d="M264.14,-22.7C284.71,-25.17 309.18,-28.6 331,-33 333.51,-33.51 336.09,-34.08 338.69,-34.69"/>
<polygon fill="black" stroke="black" points="338.06,-38.14 348.61,-37.19 339.77,-31.35 338.06,-38.14"/>
<text text-anchor="middle" x="306.5" y="-36.8" font-family="Times,serif" font-size="14.00">* =&gt; 1</text>
</g>
</g>
</svg>
