<?xml version="1.0" encoding="UTF-8" standalone="no"?>
<!DOCTYPE svg PUBLIC "-//W3C//DTD SVG 1.1//EN"
 "http://www.w3.org/Graphics/SVG/1.1/DTD/svg11.dtd">
<!-- Generated by graphviz version 2.43.0 (0)
 -->
<!-- Title: %3 Pages: 1 -->
<svg width="556pt" height="44pt"
 viewBox="0.00 0.00 556.00 44.00" xmlns="http://www.w3.org/2000/svg" xmlns:xlink="http://www.w3.org/1999/xlink">
<g id="graph0" class="graph" transform="scale(1 1) rotate(0) translate(4 40)">
<title>%3</title>
<polygon fill="white" stroke="transparent" points="-4,4 -4,-40 552,-40 552,4 -4,4"/>
<!-- 26e08007e96b0500 -->
<g id="node1" class="node">
<title>26e08007e96b0500</title>
<polygon fill="#99cc00" stroke="black" points="77,-36 0,-36 0,0 77,0 77,-36"/>
<text text-anchor="middle" x="38.5" y="-14.9" font-family="Helvetica,sans-Serif" font-size="12.00">input.mp4</text>
</g>
<!-- fa972b1371ee42 -->
<g id="node2" class="node">
<title>fa972b1371ee42</title>
<polygon fill="#ffcc00" stroke="black" points="216,-36 162,-36 162,0 216,0 216,-36"/>
<text text-anchor="middle" x="189" y="-14.9" font-family="Helvetica,sans-Serif" font-size="12.00">trim</text>
</g>
<!-- 26e08007e96b0500&#45;&gt;fa972b1371ee42 -->
<g id="edge1" class="edge">
<title>26e08007e96b0500&#45;&gt;fa972b1371ee42</title>
<path fill="none" stroke="black" d="M77.36,-18C100.21,-18 129.16,-18 151.72,-18"/>
<polygon fill="black" stroke="black" points="151.91,-21.5 161.91,-18 151.91,-14.5 151.91,-21.5"/>
<text text-anchor="middle" x="119.5" y="-21.8" font-family="Times,serif" font-size="14.00">* =&gt; 0</text>
</g>
<!-- 5743b0bcdcc2315 -->
<g id="node3" class="node">
<title>5743b0bcdcc2315</title>
<polygon fill="#ffcc00" stroke="black" points="374,-36 304,-36 304,0 374,0 374,-36"/>
<text text-anchor="middle" x="339" y="-14.9" font-family="Helvetica,sans-Serif" font-size="12.00">drawtext</text>
</g>
<!-- fa972b1371ee42&#45;&gt;5743b0bcdcc2315 -->
<g id="edge2" class="edge">
<title>fa972b1371ee42&#45;&gt;5743b0bcdcc2315</title>
<path fill="none" stroke="black" d="M216.12,-18C237.56,-18 268.4,-18 293.7,-18"/>
<polygon fill="black" stroke="black" points="293.8,-21.5 303.8,-18 293.8,-14.5 293.8,-21.5"/>
<text text-anchor="middle" x="260" y="-21.8" font-family="Times,serif" font-size="14.00">0 =&gt; 0</text>
</g>
<!-- 27ddb9a484ce2094 -->
<g id="node4" class="node">
<title>27ddb9a484ce2094</title>
<polygon fill="#99ccff" stroke="black" points="548,-36 462,-36 462,0 548,0 548,-36"/>
<text text-anchor="middle" x="505" y="-14.9" font-family="Helvetica,sans-Serif" font-size="12.00">output.mp4</text>
</g>
<!-- 5743b0bcdcc2315&#45;&gt;27ddb9a484ce2094 -->
<g id="edge3" class="edge">
<title>5743b0bcdcc2315&#45;&gt;27ddb9a484ce2094</title>
<path fill="none" stroke="black" d="M374.38,-18C396.75,-18 426.36,-18 451.63,-18"/>
<polygon fill="black" stroke="black" points="451.8,-21.5 461.8,-18 451.8,-14.5 451.8,-21.5"/>
<text text-anchor="middle" x="418" y="-21.8" font-family="Times,serif" font-size="14.00">0 =&gt; 0</text>
</g>
</g>
</svg>
