<?xml version="1.0" encoding="UTF-8" standalone="no"?>
<!DOCTYPE svg PUBLIC "-//W3C//DTD SVG 1.1//EN"
 "http://www.w3.org/Graphics/SVG/1.1/DTD/svg11.dtd">
<!-- Generated by graphviz version 2.43.0 (0)
 -->
<!-- Title: %3 Pages: 1 -->
<svg width="3221pt" height="98pt"
 viewBox="0.00 0.00 3221.00 98.00" xmlns="http://www.w3.org/2000/svg" xmlns:xlink="http://www.w3.org/1999/xlink">
<g id="graph0" class="graph" transform="scale(1 1) rotate(0) translate(4 94)">
<title>%3</title>
<polygon fill="white" stroke="transparent" points="-4,4 -4,-94 3217,-94 3217,4 -4,4"/>
<!-- 5a5a67e6040134cb -->
<g id="node1" class="node">
<title>5a5a67e6040134cb</title>
<polygon fill="#99cc00" stroke="black" points="85,-90 0,-90 0,-54 85,-54 85,-90"/>
<text text-anchor="middle" x="42.5" y="-68.9" font-family="Helvetica,sans-Serif" font-size="12.00">input1.mp4</text>
</g>
<!-- 3732df4b39d4ef5 -->
<g id="node3" class="node">
<title>3732df4b39d4ef5</title>
<polygon fill="#99ccff" stroke="black" points="264,-90 170,-90 170,-54 264,-54 264,-90"/>
<text text-anchor="middle" x="217" y="-68.9" font-family="Helvetica,sans-Serif" font-size="12.00">output1.mp4</text>
</g>
<!-- 5a5a67e6040134cb&#45;&gt;3732df4b39d4ef5 -->
<g id="edge1" class="edge">
<title>5a5a67e6040134cb&#45;&gt;3732df4b39d4ef5</title>
<path fill="none" stroke="black" d="M85.26,-72C107.59,-72 135.41,-72 159.64,-72"/>
<polygon fill="black" stroke="black" points="159.77,-75.5 169.77,-72 159.77,-68.5 159.77,-75.5"/>
<text text-anchor="middle" x="127.5" y="-75.8" font-family="Times,serif" font-size="14.00">* =&gt; 0</text>
</g>
<!-- 1f9068427c0b4484 -->
<g id="node2" class="node">
<title>1f9068427c0b4484</title>
<polygon fill="#99cc00" stroke="black" points="85,-36 0,-36 0,0 85,0 85,-36"/>
<text text-anchor="middle" x="42.5" y="-14.9" font-family="Helvetica,sans-Serif" font-size="12.00">input2.mp4</text>
</g>
<!-- 7e04b1e1039916f3 -->
<g id="node4" class="node">
<title>7e04b1e1039916f3</title>
<polygon fill="#99ccff" stroke="black" points="264,-36 170,-36 170,0 264,0 264,-36"/>
<text text-anchor="middle" x="217" y="-14.9" font-family="Helvetica,sans-Serif" font-size="12.00">output2.mp4</text>
</g>
<!-- 1f9068427c0b4484&#45;&gt;7e04b1e1039916f3 -->
<g id="edge2" class="edge">
<title>1f9068427c0b4484&#45;&gt;7e04b1e1039916f3</title>
<path fill="none" stroke="black" d="M85.26,-18C107.59,-18 135.41,-18 159.64,-18"/>
<polygon fill="black" stroke="black" points="159.77,-21.5 169.77,-18 159.77,-14.5 159.77,-21.5"/>
<text text-anchor="middle" x="127.5" y="-21.8" font-family="Times,serif" font-size="14.00">* =&gt; 0</text>
</g>
<!-- 227a5b8e5fb01287 -->
<g id="node5" class="node">
<title>227a5b8e5fb01287</title>
<polygon fill="lightgrey" stroke="black" points="3213,-63 349,-63 349,-27 3213,-27 3213,-63"/>
<text text-anchor="middle" x="1781" y="-41.9" font-family="Helvetica,sans-Serif" font-size="12.00">GlobalNode(kwargs=FrozenDict({&#39;y&#39;: True}), inputs=(OutputStream(node=OutputNode(kwargs=FrozenDict({}), inputs=(AVStream(node=InputNode(kwargs=FrozenDict({}), inputs=(), filename=&#39;input1.mp4&#39;), index=None),), filename=&#39;output1.mp4&#39;), index=None), OutputStream(node=OutputNode(kwargs=FrozenDict({}), inputs=(AVStream(node=InputNode(kwargs=FrozenDict({}), inputs=(), filename=&#39;input2.mp4&#39;), index=None),), filename=&#39;output2.mp4&#39;), index=None)))</text>
</g>
<!-- 3732df4b39d4ef5&#45;&gt;227a5b8e5fb01287 -->
<g id="edge3" class="edge">
<title>3732df4b39d4ef5&#45;&gt;227a5b8e5fb01287</title>
<path fill="none" stroke="black" d="M264.32,-71.2C344.94,-69.81 522.25,-66.74 728.24,-63.18"/>
<polygon fill="black" stroke="black" points="728.44,-66.68 738.38,-63 728.32,-59.68 728.44,-66.68"/>
<text text-anchor="middle" x="306.5" y="-73.8" font-family="Times,serif" font-size="14.00">* =&gt; 0</text>
</g>
<!-- 7e04b1e1039916f3&#45;&gt;227a5b8e5fb01287 -->
<g id="edge4" class="edge">
<title>7e04b1e1039916f3&#45;&gt;227a5b8e5fb01287</title>
<path fill="none" stroke="black" d="M264.32,-18.8C344.94,-20.19 522.25,-23.26 728.24,-26.82"/>
<polygon fill="black" stroke="black" points="728.32,-30.32 738.38,-27 728.44,-23.32 728.32,-30.32"/>
<text text-anchor="middle" x="306.5" y="-22.8" font-family="Times,serif" font-size="14.00">* =&gt; 1</text>
</g>
</g>
</svg>
